<svg width="38" height="34" viewBox="0 0 38 34" fill="none" xmlns="http://www.w3.org/2000/svg">
<path d="M34.2241 3.77594C33.3444 2.89588 32.3 2.19776 31.1505 1.72146C30.001 1.24515 28.7689 1 27.5246 1C26.2803 1 25.0482 1.24515 23.8987 1.72146C22.7492 2.19776 21.7047 2.89588 20.8251 3.77594L18.9995 5.6015L17.174 3.77594C15.3972 1.99912 12.9873 1.00092 10.4745 1.00092C7.9617 1.00092 5.55183 1.99912 3.77502 3.77594C1.9982 5.55275 1 7.96262 1 10.4754C1 12.9882 1.9982 15.3981 3.77502 17.1749L5.60058 19.0005L18.9995 32.3994L32.3985 19.0005L34.2241 17.1749C35.1041 16.2953 35.8022 15.2508 36.2785 14.1013C36.7548 12.9518 37 11.7197 37 10.4754C37 9.23113 36.7548 7.99903 36.2785 6.84951C35.8022 5.69999 35.1041 4.65558 34.2241 3.77594V3.77594Z" stroke="#6A5085" stroke-width="2" stroke-linecap="round" stroke-linejoin="round"/>
</svg>
