<svg width="36" height="32" viewBox="0 0 36 32" fill="none" xmlns="http://www.w3.org/2000/svg">
<path d="M33.2241 2.77594C32.3444 1.89588 31.3 1.19776 30.1505 0.721459C29.001 0.245155 27.7689 0 26.5246 0C25.2803 0 24.0482 0.245155 22.8987 0.721459C21.7492 1.19776 20.7047 1.89588 19.8251 2.77594L17.9995 4.6015L16.174 2.77594C14.3972 0.999124 11.9873 0.000920984 9.47449 0.000921003C6.9617 0.000921021 4.55183 0.999124 2.77502 2.77594C0.998203 4.55275 1.87218e-08 6.96262 0 9.47542C-1.87218e-08 11.9882 0.998203 14.3981 2.77502 16.1749L4.60058 18.0005L17.9995 31.3994L31.3985 18.0005L33.2241 16.1749C34.1041 15.2953 34.8022 14.2508 35.2785 13.1013C35.7548 11.9518 36 10.7197 36 9.47542C36 8.23112 35.7548 6.99903 35.2785 5.84951C34.8022 4.69999 34.1041 3.65558 33.2241 2.77594Z" fill="#7831BE"/>
</svg>
