<svg width="56" height="56" viewBox="0 0 56 56" fill="none" xmlns="http://www.w3.org/2000/svg">
<path d="M23.3334 30.3333C24.3354 31.673 25.6139 32.7814 27.082 33.5835C28.5501 34.3856 30.1736 34.8626 31.8422 34.9821C33.5109 35.1016 35.1857 34.8609 36.7532 34.2762C38.3206 33.6915 39.744 32.7765 40.9267 31.5933L47.9267 24.5933C50.0519 22.393 51.2278 19.4459 51.2012 16.387C51.1747 13.328 49.9477 10.4019 47.7846 8.23878C45.6215 6.07569 42.6953 4.84872 39.6364 4.82214C36.5774 4.79555 33.6304 5.97149 31.43 8.09667L27.4167 12.0867" stroke="black" stroke-width="2" stroke-linecap="round" stroke-linejoin="round"/>
<path d="M32.6666 25.6667C31.6646 24.327 30.3861 23.2186 28.918 22.4165C27.4499 21.6144 25.8265 21.1374 24.1578 21.0179C22.4891 20.8984 20.8143 21.1391 19.2468 21.7238C17.6794 22.3085 16.256 23.2235 15.0733 24.4067L8.07331 31.4067C5.94813 33.607 4.7722 36.5541 4.79878 39.613C4.82536 42.672 6.05233 45.5981 8.21543 47.7612C10.3785 49.9243 13.3047 51.1513 16.3636 51.1779C19.4226 51.2044 22.3696 50.0285 24.57 47.9033L28.56 43.9133" stroke="black" stroke-width="2" stroke-linecap="round" stroke-linejoin="round"/>
</svg>
