<svg width="36" height="36" viewBox="0 0 36 36" fill="none" xmlns="http://www.w3.org/2000/svg">
<path d="M15.435 5.79L2.73003 27C2.46808 27.4536 2.32948 27.9679 2.32801 28.4918C2.32655 29.0156 2.46227 29.5307 2.72167 29.9858C2.98107 30.4409 3.35512 30.8201 3.80659 31.0858C4.25807 31.3514 4.77123 31.4942 5.29503 31.5H30.705C31.2288 31.4942 31.742 31.3514 32.1935 31.0858C32.6449 30.8201 33.019 30.4409 33.2784 29.9858C33.5378 29.5307 33.6735 29.0156 33.672 28.4918C33.6706 27.9679 33.532 27.4536 33.27 27L20.565 5.79C20.2976 5.34916 19.9211 4.98468 19.4718 4.73173C19.0225 4.47877 18.5156 4.34588 18 4.34588C17.4844 4.34588 16.9775 4.47877 16.5282 4.73173C16.0789 4.98468 15.7024 5.34916 15.435 5.79V5.79Z" stroke="#6A5085" stroke-width="2" stroke-linecap="round" stroke-linejoin="round"/>
<path d="M18 13.5V19.5" stroke="#6A5085" stroke-width="2" stroke-linecap="round" stroke-linejoin="round"/>
<path d="M18 25.5H18.015" stroke="#6A5085" stroke-width="2" stroke-linecap="round" stroke-linejoin="round"/>
</svg>
